# xmcd
#
# Track frame offsets: 
#        180
#        9840
#        21011
#        32928
#        44975
#        53268
#        69227
#        80239
#        92086
#        100963
#        112476
#        123388
#        135362
#        158469
#
# Disc length: 2262 seconds
#
# Revision: 0
# Processed by: cddbd v1.5.1PL0 Copyright (c) Steve Scherf et al.
# Submitted via: ExactAudioCopy v0.95a5
#
DISCID=b208d40e
DTITLE=Harris County Line - This Morning at Nine
DYEAR=1997
DGENRE=Bluegrass
TTITLE0=This Heart Of Mine (S. Brines and J. Smoak)
TTITLE1=I Can't Go On Loving You (L. Sparks)
TTITLE2=Leave Me a Picture Of You (W. Dennis)
TTITLE3=Let The Best Man Win (W. Smith)
TTITLE4=Lost and I'll Never Find My Way (P.D.)
TTITLE5=Plant Some Flowers (P.D.)
TTITLE6=Gone, Gone, Gone (H. Howard)
TTITLE7=If That's The Way You Feel (R. Stanley)
TTITLE8=Hard Times Sometimes (J. Evans, Jr.)
TTITLE9=She's No Angel (Ballman and Howard)
TTITLE10=Please Search Your Heart (Goble and Lawson)
TTITLE11=Sun's Gonna Shine In My Backdoor (P.D.)
TTITLE12=I Never Go Around Mirrors (Fizzel and Shafer)
TTITLE13=This Morning At Nine (S. Campbell)
EXTD=
EXTT0=
EXTT1=
EXTT2=
EXTT3=
EXTT4=
EXTT5=
EXTT6=
EXTT7=
EXTT8=
EXTT9=
EXTT10=
EXTT11=
EXTT12=
EXTT13=
PLAYORDER=
